<svg width="200" height="167" viewBox="0 0 200 167" fill="none" xmlns="http://www.w3.org/2000/svg">
<path d="M33.3333 0H50V16.7H33.3333V0Z" fill="#FF0000"/>
<path d="M50 0H66.6667V16.7H50V0Z" fill="#FF0000"/>
<path d="M66.6667 0H83.3333V16.7H66.6667V0Z" fill="#FF0000"/>
<path d="M116.667 0H133.333V16.7H116.667V0Z" fill="#FF0000"/>
<path d="M133.333 0H150V16.7H133.333V0Z" fill="#FF0000"/>
<path d="M150 0H166.667V16.7H150V0Z" fill="#FF0000"/>
<path d="M16.6667 16.7H33.3333V33.4H16.6667V16.7Z" fill="#FF0000"/>
<path d="M33.3333 16.7H50V33.4H33.3333V16.7Z" fill="#FF0000"/>
<path d="M50 16.7H66.6667V33.4H50V16.7Z" fill="#FF0000"/>
<path d="M66.6667 16.7H83.3333V33.4H66.6667V16.7Z" fill="#FF0000"/>
<path d="M83.3333 16.7H100V33.4H83.3333V16.7Z" fill="#FF0000"/>
<path d="M100 16.7H116.667V33.4H100V16.7Z" fill="#FF0000"/>
<path d="M116.667 16.7H133.333V33.4H116.667V16.7Z" fill="#FF0000"/>
<path d="M133.333 16.7H150V33.4H133.333V16.7Z" fill="#FF0000"/>
<path d="M150 16.7H166.667V33.4H150V16.7Z" fill="#FF0000"/>
<path d="M166.667 16.7H183.333V33.4H166.667V16.7Z" fill="#FF0000"/>
<path d="M0 33.4H16.6667V50.1H0V33.4Z" fill="#D10000"/>
<path d="M16.6667 33.4H33.3333V50.1H16.6667V33.4Z" fill="#FF0000"/>
<path d="M33.3333 33.4H50V50.1H33.3333V33.4Z" fill="#FF0000"/>
<path d="M50 33.4H66.6667V50.1H50V33.4Z" fill="#FF0000"/>
<path d="M66.6667 33.4H83.3333V50.1H66.6667V33.4Z" fill="#FF0000"/>
<path d="M83.3333 33.4H100V50.1H83.3333V33.4Z" fill="#FF0000"/>
<path d="M100 33.4H116.667V50.1H100V33.4Z" fill="#FF0000"/>
<path d="M116.667 33.4H133.333V50.1H116.667V33.4Z" fill="#FF0000"/>
<path d="M166.667 33.4H183.333V50.1H166.667V33.4Z" fill="#FF0000"/>
<path d="M183.333 33.4H200V50.1H183.333V33.4Z" fill="#FF0000"/>
<path d="M0 50.1H16.6667V66.8H0V50.1Z" fill="#D10000"/>
<path d="M16.6667 50.1H33.3333V66.8H16.6667V50.1Z" fill="#D10000"/>
<path d="M33.3333 50.1H50V66.8H33.3333V50.1Z" fill="#FF0000"/>
<path d="M50 50.1H66.6667V66.8H50V50.1Z" fill="#FF0000"/>
<path d="M66.6667 50.1H83.3333V66.8H66.6667V50.1Z" fill="#FF0000"/>
<path d="M83.3333 50.1H100V66.8H83.3333V50.1Z" fill="#FF0000"/>
<path d="M100 50.1H116.667V66.8H100V50.1Z" fill="#FF0000"/>
<path d="M116.667 50.1H133.333V66.8H116.667V50.1Z" fill="#FF0000"/>
<path d="M133.333 50.1H150V66.8H133.333V50.1Z" fill="#FF0000"/>
<path d="M166.667 50.1H183.333V66.8H166.667V50.1Z" fill="#FF0000"/>
<path d="M183.333 50.1H200V66.8H183.333V50.1Z" fill="#FF0000"/>
<path d="M0 66.8H16.6667V83.5H0V66.8Z" fill="#D10000"/>
<path d="M16.6667 66.8H33.3333V83.5H16.6667V66.8Z" fill="#D10000"/>
<path d="M33.3333 66.8H50V83.5H33.3333V66.8Z" fill="#FF0000"/>
<path d="M50 66.8H66.6667V83.5H50V66.8Z" fill="#FF0000"/>
<path d="M66.6667 66.8H83.3333V83.5H66.6667V66.8Z" fill="#FF0000"/>
<path d="M83.3333 66.8H100V83.5H83.3333V66.8Z" fill="#FF0000"/>
<path d="M100 66.8H116.667V83.5H100V66.8Z" fill="#FF0000"/>
<path d="M116.667 66.8H133.333V83.5H116.667V66.8Z" fill="#FF0000"/>
<path d="M133.333 66.8H150V83.5H133.333V66.8Z" fill="#FF0000"/>
<path d="M150 66.8H166.667V83.5H150V66.8Z" fill="#FF0000"/>
<path d="M166.667 66.8H183.333V83.5H166.667V66.8Z" fill="#FF0000"/>
<path d="M183.333 66.8H200V83.5H183.333V66.8Z" fill="#FF0000"/>
<path d="M16.6667 83.5H33.3333V100.2H16.6667V83.5Z" fill="#D10000"/>
<path d="M33.3333 83.5H50V100.2H33.3333V83.5Z" fill="#D10000"/>
<path d="M50 83.5H66.6667V100.2H50V83.5Z" fill="#FF0000"/>
<path d="M66.6667 83.5H83.3333V100.2H66.6667V83.5Z" fill="#FF0000"/>
<path d="M83.3333 83.5H100V100.2H83.3333V83.5Z" fill="#FF0000"/>
<path d="M100 83.5H116.667V100.2H100V83.5Z" fill="#FF0000"/>
<path d="M116.667 83.5H133.333V100.2H116.667V83.5Z" fill="#FF0000"/>
<path d="M133.333 83.5H150V100.2H133.333V83.5Z" fill="#FF0000"/>
<path d="M150 83.5H166.667V100.2H150V83.5Z" fill="#FF0000"/>
<path d="M166.667 83.5H183.333V100.2H166.667V83.5Z" fill="#FF0000"/>
<path d="M33.3333 100.2H50V116.9H33.3333V100.2Z" fill="#D10000"/>
<path d="M50 100.2H66.6667V116.9H50V100.2Z" fill="#D10000"/>
<path d="M66.6667 100.2H83.3333V116.9H66.6667V100.2Z" fill="#FF0000"/>
<path d="M83.3333 100.2H100V116.9H83.3333V100.2Z" fill="#FF0000"/>
<path d="M100 100.2H116.667V116.9H100V100.2Z" fill="#FF0000"/>
<path d="M116.667 100.2H133.333V116.9H116.667V100.2Z" fill="#FF0000"/>
<path d="M133.333 100.2H150V116.9H133.333V100.2Z" fill="#FF0000"/>
<path d="M150 100.2H166.667V116.9H150V100.2Z" fill="#FF0000"/>
<path d="M50 116.9H66.6667V133.6H50V116.9Z" fill="#D10000"/>
<path d="M66.6667 116.9H83.3333V133.6H66.6667V116.9Z" fill="#D10000"/>
<path d="M83.3333 116.9H100V133.6H83.3333V116.9Z" fill="#FF0000"/>
<path d="M100 116.9H116.667V133.6H100V116.9Z" fill="#FF0000"/>
<path d="M116.667 116.9H133.333V133.6H116.667V116.9Z" fill="#FF0000"/>
<path d="M133.333 116.9H150V133.6H133.333V116.9Z" fill="#FF0000"/>
<path d="M66.6667 133.6H83.3333V150.3H66.6667V133.6Z" fill="#D10000"/>
<path d="M83.3333 133.6H100V150.3H83.3333V133.6Z" fill="#D10000"/>
<path d="M100 133.6H116.667V150.3H100V133.6Z" fill="#FF0000"/>
<path d="M116.667 133.6H133.333V150.3H116.667V133.6Z" fill="#FF0000"/>
<path d="M100 150.3H116.667V167H100V150.3Z" fill="#D10000"/>
</svg>
